<?xml version="1.0" standalone="no"?>
<!DOCTYPE svg PUBLIC "-//W3C//DTD SVG 20010904//EN"
 "http://www.w3.org/TR/2001/REC-SVG-20010904/DTD/svg10.dtd">
<svg version="1.0" xmlns="http://www.w3.org/2000/svg"
 width="1283.000000pt" height="1283.000000pt" viewBox="0 0 1283.000000 1283.000000"
 preserveAspectRatio="xMidYMid meet">
<metadata>
Created by potrace 1.14, written by Peter Selinger 2001-2017
</metadata>
<g transform="translate(0.000000,1283.000000) scale(0.100000,-0.100000)"
fill="#000000" stroke="none">
<path d="M793 12815 c-142 -26 -263 -78 -388 -166 -211 -150 -338 -352 -390
-619 -11 -52 -13 -1161 -14 -5615 0 -5407 0 -5552 19 -5640 82 -392 380 -685
772 -760 71 -13 711 -15 5616 -15 3788 0 5558 3 5602 11 417 66 737 384 808
802 9 55 9 11150 0 11202 -29 159 -74 272 -164 406 -50 75 -163 186 -234 233
-25 16 -56 37 -70 46 -59 38 -216 98 -305 116 -22 5 -2546 9 -5610 10 -4533 2
-5583 0 -5642 -11z"/>
</g>
</svg>
